<?xml version="1.0" encoding="utf-8"?>
<!-- Generator: Adobe Illustrator 23.1.1, SVG Export Plug-In . SVG Version: 6.00 Build 0)  -->
<svg version="1.1" id="Ebene_1" xmlns="http://www.w3.org/2000/svg" xmlns:xlink="http://www.w3.org/1999/xlink" x="0px" y="0px"
	 viewBox="0 0 600 108" style="enable-background:new 0 0 600 108;" xml:space="preserve">
<style type="text/css">
	.st0{fill:#E61D47;}
	.st1{fill:#141210;}
</style>
<g>
	<polygon class="st0" points="555.34,0.76 541.29,14.81 585.95,14.81 585.95,59.46 600,45.41 600,0.76 	"/>
	<path class="st1" d="M161.87,43.92v-1.44H148.8h-0.87v6.8c-4.61-5.11-10.84-8.22-18.57-8.22c-17.7,0-29.41,15.58-29.41,33.03
		c0,17.2,11.22,33.15,29.41,33.15c7.86,0,14.11-3.21,18.57-8.39v6.77h1.87l0,0h12.09v-61.7L161.87,43.92z M130.98,94.9
		c-10.59,0-16.58-9.72-16.58-20.81c0-11.59,6.48-20.69,16.58-20.69c9.97,0,17.82,8.23,17.82,20.57
		C148.8,87.18,140.33,94.9,130.98,94.9z"/>
	<path class="st1" d="M297.85,43.93v-1.44h-13.07h-0.87v6.8c-4.61-5.11-10.84-8.22-18.57-8.22c-17.7,0-29.41,15.58-29.41,33.03
		c0,17.2,11.22,33.15,29.41,33.15c7.86,0,14.11-3.21,18.57-8.39v6.77h1.87l0,0h12.09v-61.7L297.85,43.93z M266.96,94.91
		c-10.59,0-16.58-9.72-16.58-20.81c0-11.59,6.48-20.69,16.58-20.69c9.97,0,17.82,8.23,17.82,20.57
		C284.79,87.18,276.31,94.91,266.96,94.91z"/>
	<path class="st1" d="M558.34,43.87v-1.44h-13.07h-0.87v6.8c-4.61-5.11-10.84-8.22-18.57-8.22c-17.7,0-29.41,15.58-29.41,33.03
		c0,17.2,11.22,33.15,29.41,33.15c7.86,0,14.11-3.21,18.57-8.39v6.77h1.87l0,0h12.09v-61.7L558.34,43.87z M527.44,94.85
		c-10.59,0-16.58-9.72-16.58-20.81c0-11.59,6.48-20.69,16.58-20.69c9.97,0,17.82,8.23,17.82,20.57
		C545.27,87.12,536.79,94.85,527.44,94.85z"/>
	<path class="st1" d="M14.1,86.98V75.1c0-14.58,6.11-21.81,13.34-21.81c6.85,0,9.6,5.61,9.6,13.46v20.22h13.96v-11
		c0-15.33,5.98-22.68,13.34-22.68c6.86,0,9.6,5.61,9.6,13.46v20.22h13.96V64.88c0-14.83-7.98-23.93-20.57-23.93
		c-7.98,0-14.83,3.37-19.19,10.84c-3.24-6.85-9.47-10.84-17.7-10.84c-6.72,0-12.38,2.55-16.57,7.88v-6.46H0v44.6H14.1z"/>
	
		<rect x="313.17" y="91.6" transform="matrix(-1.836970e-16 1 -1 -1.836970e-16 418.7858 -221.6298)" class="st1" width="14.08" height="13.96"/>
	
		<rect x="353.25" y="91.6" transform="matrix(-1.836970e-16 1 -1 -1.836970e-16 458.8687 -261.7128)" class="st1" width="14.08" height="13.96"/>
	
		<rect x="456.56" y="91.6" transform="matrix(-1.836970e-16 1 -1 -1.836970e-16 562.1807 -365.0248)" class="st1" width="14.08" height="13.96"/>
	
		<rect x="36.96" y="91.6" transform="matrix(-1.836970e-16 1 -1 -1.836970e-16 142.5724 54.5836)" class="st1" width="14.08" height="13.96"/>
	
		<rect x="0" y="91.54" transform="matrix(-1.836970e-16 1 -1 -1.836970e-16 105.6184 91.5375)" class="st1" width="14.08" height="14.08"/>
	
		<rect x="73.88" y="91.61" transform="matrix(-1.836970e-16 1 -1 -1.836970e-16 179.4942 17.6617)" class="st0" width="14.08" height="13.94"/>
	<g>
		<polygon class="st1" points="216.05,105.56 235.93,105.56 204.35,73.98 235.93,42.41 216.05,42.41 184.48,73.98 		"/>
		<polygon class="st1" points="191.28,27.56 177.32,27.56 177.32,105.64 191.28,105.64 191.28,85.07 191.31,85.04 191.31,66.59 
			191.28,66.62 		"/>
	</g>
	<path class="st1" d="M427.32,27.49v21.73c-4.61-5.11-10.84-8.22-18.57-8.22c-18.07,0-29.41,15.95-29.41,33.15
		c0,17.45,11.59,33.03,29.41,33.03c8.23,0,14.71-3.49,19.2-8.97l1.25,7.35h12.09V27.49H427.32z M410.37,94.84
		c-10.34,0-16.57-9.22-16.57-20.69c0-11.22,6.23-20.81,16.57-20.81c9.35,0,17.83,7.73,17.83,20.81
		C428.19,86.61,420.34,94.84,410.37,94.84z"/>
	<path class="st1" d="M470.67,86.98v-9.26c0-14.33,6.98-24.3,19.69-24.3V41.07c-9.35,0-15.57,3.95-19.69,9.91v-8.49h-14.05v44.48
		H470.67z"/>
	<path class="st1" d="M327.26,86.98V76.59c0-14.58,6.23-23.18,16.33-23.18c6.86,0,9.72,5.73,9.72,13.58v19.98h13.96V65.13
		c0-14.83-8.23-24.05-20.82-24.05c-8.15,0-14.71,2.95-19.19,8.77V42.7h-1.99l0-0.01l-0.06,0.01h-11.98v44.28H327.26z"/>
</g>
</svg>
