<?xml version="1.0" encoding="UTF-8" standalone="no"?>
<svg
   xmlns:dc="http://purl.org/dc/elements/1.1/"
   xmlns:cc="http://creativecommons.org/ns#"
   xmlns:rdf="http://www.w3.org/1999/02/22-rdf-syntax-ns#"
   xmlns:svg="http://www.w3.org/2000/svg"
   xmlns="http://www.w3.org/2000/svg"
   xmlns:sodipodi="http://sodipodi.sourceforge.net/DTD/sodipodi-0.dtd"
   xmlns:inkscape="http://www.inkscape.org/namespaces/inkscape"
   viewBox="0 0 336.49544 47.393335"
   height="47.393333"
   width="336.49545"
   xml:space="preserve"
   id="svg2"
   version="1.1"
   sodipodi:docname="unpoly3.svg"
   inkscape:version="0.92.5 (2060ec1f9f, 2020-04-08)"
   inkscape:export-filename="/home/henning/Projects/unpoly-brand/unpoly3/unpoly3.png"
   inkscape:export-xdpi="455.89914"
   inkscape:export-ydpi="455.89914"><sodipodi:namedview
     pagecolor="#ffffff"
     bordercolor="#666666"
     borderopacity="1"
     objecttolerance="10"
     gridtolerance="10"
     guidetolerance="10"
     inkscape:pageopacity="0"
     inkscape:pageshadow="2"
     inkscape:window-width="2560"
     inkscape:window-height="1391"
     id="namedview37"
     showgrid="false"
     inkscape:zoom="2.7654238"
     inkscape:cx="322.99073"
     inkscape:cy="-144.50873"
     inkscape:window-x="1920"
     inkscape:window-y="0"
     inkscape:window-maximized="1"
     inkscape:current-layer="svg2" /><metadata
     id="metadata8"><rdf:RDF><cc:Work
         rdf:about=""><dc:format>image/svg+xml</dc:format><dc:type
           rdf:resource="http://purl.org/dc/dcmitype/StillImage" /><dc:title /></cc:Work></rdf:RDF></metadata><defs
     id="defs6">


</defs><path
     inkscape:connector-curvature="0"
     id="path40"
     style="fill:#2c2d2e;fill-opacity:1;fill-rule:nonzero;stroke:none;stroke-width:0.13333333"
     d="M 47.222703,33.812003 V 3.7441999e-6 H 41.976037 V 31.05867 L 23.610704,41.594669 5.2467045,31.05867 V 3.7441999e-6 H 3.79283e-5 V 33.812003 L 23.610704,47.393336 47.222703,33.812003" /><path
     inkscape:connector-curvature="0"
     id="path42"
     style="fill:#2c2d2e;fill-opacity:1;fill-rule:nonzero;stroke:none;stroke-width:0.13333333"
     d="M 31.482704,4.7680036 V 31.029336 l 5.245333,-3.009333 V 4.7680036 h -5.245333" /><path
     inkscape:connector-curvature="0"
     id="path44"
     style="fill:#2c2d2e;fill-opacity:1;fill-rule:nonzero;stroke:none;stroke-width:0.13333333"
     d="m 20.989371,11.01867 v 23.021333 l 2.621333,1.505333 2.625333,-1.505333 V 11.01867 h -5.246666" /><path
     inkscape:connector-curvature="0"
     id="path46"
     style="fill:#2c2d2e;fill-opacity:1;fill-rule:nonzero;stroke:none;stroke-width:0.13333333"
     d="m 10.493371,17.768003 v 10.252 l 5.248,3.009333 V 17.768003 h -5.248" /><path
     inkscape:connector-curvature="0"
     id="path48"
     style="fill:#2c2d2e;fill-opacity:1;fill-rule:nonzero;stroke:none;stroke-width:0.13333333"
     d="m 92.884036,4.1640036 h 5.041333 V 31.701336 c 0,3.36 -2.708,6.066667 -6.068,6.066667 H 70.388036 c -3.36,0 -6.065333,-2.706667 -6.065333,-6.066667 V 4.1640036 H 69.36137 V 31.701336 c 0,0.56 0.466666,1.026667 1.026666,1.026667 h 21.469333 c 0.561333,0 1.026667,-0.466667 1.026667,-1.026667 V 4.1640036" /><path
     inkscape:connector-curvature="0"
     id="path50"
     style="fill:#2c2d2e;fill-opacity:1;fill-rule:nonzero;stroke:none;stroke-width:0.13333333"
     d="m 134.88403,4.1640036 h 5.04134 V 37.768003 H 133.9507 L 111.36137,10.885337 v 26.882666 h -5.04 V 4.1640036 h 5.97333 L 134.88403,31.04667 V 4.1640036" /><path
     inkscape:connector-curvature="0"
     id="path52"
     style="fill:#2c2d2e;fill-opacity:1;fill-rule:nonzero;stroke:none;stroke-width:0.13333333"
     d="m 176.97737,10.27867 c 0,-0.5599998 -0.468,-1.0266665 -1.028,-1.0266665 h -21.468 c -0.56,0 -1.028,0.4666667 -1.028,1.0266665 v 9.428 c 0,0.56 0.468,1.026667 1.028,1.026667 h 21.468 c 0.56,0 1.028,-0.466667 1.028,-1.026667 z m -1.028,-6.0666664 c 3.36133,0 6.068,2.752 6.068,6.0666664 v 9.428 c 0,3.313333 -2.70667,6.066666 -6.068,6.066666 h -21.468 c -0.37467,0 -0.70134,-0.04667 -1.028,-0.09333 v 12.088 h -5.04 V 4.2120036 h 27.536" /><path
     inkscape:connector-curvature="0"
     id="path54"
     style="fill:#2c2d2e;fill-opacity:1;fill-rule:nonzero;stroke:none;stroke-width:0.13333333"
     d="m 216.0387,32.728003 c 0.56,0 1.02667,-0.466667 1.02667,-1.026667 V 10.232003 c 0,-0.5599995 -0.46667,-1.0266662 -1.02667,-1.0266662 h -21.46667 c -0.56,0 -1.02666,0.4666667 -1.02666,1.0266662 v 21.469333 c 0,0.56 0.46666,1.026667 1.02666,1.026667 z m 0,-28.5639994 c 3.36,0 6.06667,2.708 6.06667,6.0679994 v 21.469333 c 0,3.36 -2.70667,6.066667 -6.06667,6.066667 h -21.46667 c -3.36,0 -6.06666,-2.706667 -6.06666,-6.066667 V 10.232003 c 0,-3.3599994 2.70666,-6.0679994 6.06666,-6.0679994 h 21.46667" /><path
     inkscape:connector-curvature="0"
     id="path56"
     style="fill:#2c2d2e;fill-opacity:1;fill-rule:nonzero;stroke:none;stroke-width:0.13333333"
     d="m 230.54537,4.117337 h 5.04 v 28.610666 h 28.55999 v 5.04 H 230.54537 V 4.117337" /><path
     inkscape:connector-curvature="0"
     id="path58"
     style="fill:#2c2d2e;fill-opacity:1;fill-rule:nonzero;stroke:none;stroke-width:0.13333333"
     d="M 298.26536,4.1640036 282.77203,25.16667 v 12.601333 h -5.04 V 25.16667 L 262.2387,4.1640036 h 5.92 l 12.09333,15.3079994 12.04,-15.3079994 h 5.97333" /><path
     inkscape:connector-curvature="0"
     style="font-style:normal;font-variant:normal;font-weight:500;font-stretch:normal;font-size:34.95561981px;line-height:1.25;font-family:Orbitron;-inkscape-font-specification:'Orbitron Medium';letter-spacing:0px;word-spacing:0px;fill:#ee2020;fill-opacity:1;stroke:none;stroke-width:1.16518724"
     d="m 310.44283,4.1571503 c -1.70893,0 -3.1552,0.5907467 -4.336,1.77148 -1.18067,1.1807199 -1.76947,2.6250399 -1.76947,4.3339867 v 1.865226 h 5.08 V 10.96183 c 0,-0.683573 0.10934,-1.1340532 0.32627,-1.3515598 0.21747,-0.2485734 0.668,-0.37304 1.35147,-0.37304 h 18.64266 c 0.71467,0 1.18094,0.1245333 1.3984,0.37304 0.21747,0.2175066 0.32614,0.6679868 0.32614,1.3515598 v 5.76516 c 0,0.683587 -0.10934,1.149867 -0.32614,1.39844 -0.21746,0.217507 -0.68373,0.326173 -1.3984,0.326173 h -19.29493 v 1.435547 2.132813 1.435547 h 19.29493 c 0.7148,0 1.1808,0.108666 1.3984,0.326173 0.2168,0.248587 0.32614,0.714853 0.32614,1.39844 v 5.765173 c 0,0.683587 -0.10934,1.134067 -0.32614,1.35156 -0.2176,0.24852 -0.6836,0.37304 -1.3984,0.37304 H 311.0951 c -0.68347,0 -1.13387,-0.124533 -1.35147,-0.37304 -0.2168,-0.217493 -0.32627,-0.667973 -0.32627,-1.35156 v -1.166013 h -5.08 v 1.865227 c 0,1.708933 0.5888,3.153266 1.76947,4.333986 1.1808,1.180733 2.62707,1.77148 4.336,1.77148 h 19.99413 c 1.7088,0 3.13734,-0.590747 4.28707,-1.77148 1.18067,-1.18072 1.77147,-2.625053 1.77147,-4.333986 v -7.163614 c 0,-0.40396 -0.0467,-0.806986 -0.14054,-1.210933 -0.13333,-0.882626 -0.54426,-1.65572 -0.9596,-2.35864 0.52227,-0.69768 0.76494,-1.51416 0.9596,-2.274173 0.0933,-0.40392 0.14054,-0.807 0.14054,-1.210947 v -7.163586 c 0,-1.7089468 -0.59067,-3.1532668 -1.77147,-4.3339867 -1.1496,-1.1807333 -2.57813,-1.77148 -4.28707,-1.77148 z"
     id="path890" /></svg>